<svg width="30" height="30" viewBox="0 0 30 30" fill="none" xmlns="http://www.w3.org/2000/svg">
<g id="Frame" clip-path="url(#clip0_1_1105)">
<g id="Group">
<g id="Group_2">
<g id="Group_3">
<path id="Vector" d="M28.5096 26.0196C24.9287 22.6935 21.944 17.8911 19.6691 12.8501C19.6646 12.84 19.6609 12.8296 19.6564 12.8195C19.6514 12.8018 19.6457 12.7842 19.6383 12.7666C19.4165 12.2361 19.3477 11.6636 19.4318 11.0876C19.4346 11.069 19.436 11.0506 19.4364 11.0323C19.4973 10.6577 19.6224 10.2849 19.8103 9.92665C20.3165 8.96122 20.4616 8.00789 20.4122 7.23685C20.3974 6.41148 19.9647 5.34538 19.205 4.00117C19.0002 3.63885 18.7744 3.262 18.5309 2.87421C18.131 2.23732 17.7031 1.60136 17.2753 0.995715C17.1255 0.78371 16.9864 0.590591 16.8614 0.419949C16.786 0.317067 16.7319 0.244227 16.7024 0.205073C16.4131 -0.178789 15.7639 0.0113471 15.7639 0.479923C15.7639 3.36753 15.4807 5.38481 15.0166 6.67821C14.9228 6.93942 14.827 7.15534 14.7322 7.33035C14.6373 7.15534 14.5415 6.93942 14.4478 6.67821C13.9837 5.38481 13.7004 3.36758 13.7004 0.479923C13.7004 0.0113471 13.0511 -0.178734 12.7619 0.205073C12.7324 0.244171 12.6783 0.317067 12.6029 0.419949C12.4779 0.590591 12.3388 0.783765 12.189 0.995715C11.7612 1.60136 11.3334 2.23726 10.9334 2.87421C10.6899 3.262 10.4641 3.63879 10.2593 4.00117C9.49967 5.34532 9.06696 6.41137 9.05775 7.16468C9.00246 8.00828 9.14745 8.96144 9.6534 9.92648C9.84179 10.2855 9.96692 10.6591 10.0277 11.0346C10.0282 11.0521 10.0296 11.0697 10.0323 11.0875C10.1163 11.6628 10.0474 12.2355 9.82568 12.7668C9.81902 12.7828 9.81397 12.7988 9.80921 12.815C9.80416 12.8266 9.79988 12.8384 9.79465 12.85C7.52218 17.8876 4.53553 22.6931 0.954702 26.0196C0.797704 26.1654 0.758766 26.3883 0.858042 26.5728C0.963203 26.7681 1.18601 27.0211 1.56052 27.2603C2.70523 27.9914 4.53018 28.1058 7.15724 27.2923C7.19267 27.2813 7.26609 27.2603 7.37256 27.2325C7.55351 27.1852 7.75795 27.1377 7.98093 27.0933C8.81312 26.9276 9.6578 26.8509 10.4333 26.911C10.6523 26.9279 10.8622 26.9558 11.0617 26.995C12.1511 27.2092 13.0259 27.3169 13.8892 27.3169H15.5751C16.4383 27.3169 17.3121 27.2093 18.4026 26.9951C18.6021 26.9558 18.812 26.928 19.031 26.911C19.8065 26.8509 20.6512 26.9277 21.4834 27.0934C21.7064 27.1378 21.9108 27.1852 22.0918 27.2325C22.1982 27.2604 22.2717 27.2814 22.3071 27.2924C24.9341 28.1059 26.7591 27.9915 27.9038 27.2604C28.2783 27.0212 28.5011 26.7682 28.6063 26.5728C28.7056 26.3883 28.6666 26.1655 28.5096 26.0196ZM11.1018 11.5024H18.3619C18.3572 11.8247 18.3906 12.1459 18.4625 12.4608H11.0012C11.073 12.1459 11.1064 11.8248 11.1018 11.5024ZM10.0819 7.29434C10.0837 7.26529 10.0892 7.1892 10.0892 7.1892C10.0892 6.64088 10.4806 5.67125 11.1727 4.44672C11.3699 4.0977 11.5884 3.73322 11.8245 3.3572C12.1044 2.91143 12.3991 2.46511 12.6978 2.02962C12.7841 4.21257 13.0577 5.83532 13.4689 6.98128C13.653 7.49431 13.8556 7.88325 14.0662 8.16583C14.2112 8.36044 14.3421 8.4821 14.446 8.54638C14.6193 8.65368 14.845 8.65368 15.0183 8.54638C15.1221 8.4821 15.2531 8.36044 15.3981 8.16583C15.6086 7.88325 15.8112 7.49431 15.9953 6.98128C16.4065 5.83532 16.6801 4.21257 16.7664 2.02962C17.0652 2.46511 17.3598 2.91138 17.6398 3.3572C17.8759 3.73322 18.0943 4.0977 18.2916 4.44672C18.9837 5.67131 19.3751 6.64088 19.3751 7.1892C19.3789 7.2474 19.3805 7.26496 19.3823 7.29384C19.3961 7.50872 19.3873 7.78849 19.3382 8.11094C19.2665 8.582 19.1202 9.05416 18.8828 9.50684C18.7064 9.84304 18.5741 10.1911 18.4868 10.5439H10.9769C10.8896 10.191 10.7572 9.84298 10.5808 9.50673C10.3436 9.05439 10.1974 8.58244 10.1258 8.11155C10.0768 7.78915 10.068 7.50938 10.0819 7.29434ZM27.3193 26.4706C26.676 26.8814 25.6678 27.0352 24.2049 26.7739C22.6526 25.7656 20.9222 23.1472 20.9222 21.5663C20.9222 21.3016 20.6913 21.087 20.4063 21.087C20.1214 21.087 19.8905 21.3016 19.8905 21.5663C19.8905 22.9567 20.8936 24.8599 22.1358 26.2516C21.9986 26.2189 21.8534 26.1869 21.6995 26.1562C20.7762 25.9724 19.8355 25.8869 18.9451 25.9559C18.8814 25.9608 18.8181 25.9666 18.7553 25.9732C18.7443 25.9363 18.7327 25.8981 18.7202 25.8569C18.6876 25.7496 18.6876 25.7496 18.6555 25.6444C18.6311 25.5641 18.6117 25.4993 18.5935 25.4372C18.4189 24.8423 18.3428 24.4314 18.3428 23.9626C18.3428 23.6979 18.1118 23.4834 17.8269 23.4834C17.542 23.4834 17.311 23.6979 17.311 23.9626C17.311 24.5312 17.4015 25.0193 17.5981 25.6893C17.6172 25.7544 17.6374 25.8217 17.6625 25.9044C17.6949 26.0111 17.6949 26.0111 17.7273 26.1173C17.7299 26.1259 17.7323 26.1338 17.7348 26.1422C16.9176 26.2868 16.236 26.3586 15.5749 26.3586H13.889C13.4928 26.3586 13.089 26.3328 12.6533 26.2811C12.6809 26.1978 12.7136 26.1004 12.7539 25.981C13.0667 25.0536 13.1842 24.5732 13.1842 23.9623C13.1842 23.6976 12.9532 23.4831 12.6683 23.4831C12.3834 23.4831 12.1524 23.6976 12.1524 23.9623C12.1524 24.4455 12.0518 24.8571 11.7693 25.6945C11.7073 25.8783 11.6622 26.0132 11.6262 26.124C11.5118 26.1031 11.3951 26.0811 11.2751 26.0575C11.032 26.0098 10.7796 25.9762 10.5189 25.956C9.62849 25.887 8.68781 25.9725 7.76454 26.1563C7.66866 26.1754 7.57669 26.1951 7.48711 26.2151C8.90521 24.7954 10.0889 22.9144 10.0889 21.5664C10.0889 21.3017 9.85796 21.0871 9.57303 21.0871C9.2881 21.0871 9.05715 21.3017 9.05715 21.5664C9.05715 23.043 7.01504 25.6501 5.25947 26.774C3.79637 27.0353 2.78809 26.8816 2.14476 26.4707C2.09732 26.4404 2.05494 26.4107 2.01725 26.3823C5.51693 23.0124 8.41769 18.3341 10.6554 13.4193H18.8082C21.0482 18.3373 23.9472 23.0129 27.4468 26.3821C27.4091 26.4106 27.3667 26.4403 27.3193 26.4706Z" fill="#0970CD"/>
</g>
</g>
</g>
<line id="Line 1" x1="11.5892" y1="20.5536" x2="14.6607" y2="20.5536" stroke="#0970CD" stroke-width="1.75" stroke-linecap="round"/>
<line id="Line 2" x1="17.4822" y1="20.5536" x2="18.4107" y2="20.5536" stroke="#0970CD" stroke-width="1.75" stroke-linecap="round"/>
</g>
<defs>
<clipPath id="clip0_1_1105">
<rect width="30" height="30" fill="white"/>
</clipPath>
</defs>
</svg>
