<svg width="24" height="21" viewBox="0 0 24 21" fill="none" xmlns="http://www.w3.org/2000/svg">
<path d="M20.9218 3.48637L20.9267 3.49179L20.9317 3.49712C21.6646 4.27775 22.1078 5.29012 22.3915 6.61114C22.7107 8.54897 22.3415 10.2965 21.1433 12.0253L21.1432 12.0252L21.1357 12.0365C20.2062 13.4309 19.0392 14.7274 17.3828 16.0925L17.3827 16.0924L17.3733 16.1005C15.7699 17.467 13.9955 18.6578 11.9494 19.801C11.7911 19.8857 11.7258 19.8963 11.6348 19.8963C11.5438 19.8963 11.4784 19.8858 11.3202 19.8011C8.97489 18.4895 7.13034 17.2265 5.53225 15.81L5.52458 15.8032L5.51673 15.7966C4.37758 14.8412 3.149 13.6786 2.17695 12.1764L2.17695 12.1763L2.17514 12.1736C1.325 10.8723 0.885518 9.54138 0.834334 8.09572C0.784488 6.57771 1.26409 5.09802 2.2689 3.76528C3.19053 2.63442 4.40917 1.94946 5.96345 1.78099C7.42062 1.68035 8.66429 1.95656 9.72873 2.59481C10.2704 2.92337 10.7571 3.35756 11.148 3.79947L11.7405 4.46921L12.2969 3.76922C13.3111 2.49329 14.7447 1.7804 16.5393 1.72754H16.7723C18.4743 1.72754 19.8585 2.3085 20.9218 3.48637Z" stroke="#999999" stroke-opacity="0.4" stroke-width="1.5"/>
</svg>
