<svg width="28" height="28" viewBox="0 0 28 28" fill="none" xmlns="http://www.w3.org/2000/svg">
<path d="M11.6667 20.9999C13.7375 20.9995 15.7486 20.3063 17.3799 19.0306L22.5085 24.1592L24.1582 22.5096L19.0295 17.3809C20.3059 15.7495 20.9995 13.7379 21 11.6666C21 6.52042 16.8129 2.33325 11.6667 2.33325C6.52054 2.33325 2.33337 6.52042 2.33337 11.6666C2.33337 16.8127 6.52054 20.9999 11.6667 20.9999ZM11.6667 4.66658C15.5272 4.66658 18.6667 7.80608 18.6667 11.6666C18.6667 15.5271 15.5272 18.6666 11.6667 18.6666C7.80621 18.6666 4.66671 15.5271 4.66671 11.6666C4.66671 7.80608 7.80621 4.66658 11.6667 4.66658Z" fill="white"/>
</svg>
